<?xml version="1.0" standalone="no"?><!DOCTYPE svg PUBLIC "-//W3C//DTD SVG 1.1//EN" "http://www.w3.org/Graphics/SVG/1.1/DTD/svg11.dtd"><svg t="1619406618915" class="icon" viewBox="0 0 1024 1024" version="1.1" xmlns="http://www.w3.org/2000/svg" p-id="4087" id="mx_n_1619406618916" xmlns:xlink="http://www.w3.org/1999/xlink" width="32" height="32"><defs><style type="text/css"></style></defs><path d="M0 512C0 229.226667 229.226667 0 512 0s512 229.226667 512 512-229.226667 512-512 512S0 794.773333 0 512z" fill="#FFFFFF" p-id="4088"></path><path d="M288.362667 791.914667L238.933333 238.933333h543.168l-49.493333 552.896L510.186667 853.333333z" fill="#E44D26" p-id="4089" data-spm-anchor-id="a313x.7781069.0.i29" class=""></path><path d="M510.506667 804.352l180.224-49.578667 42.389333-471.317333H510.506667z" fill="#F16529" p-id="4090" data-spm-anchor-id="a313x.7781069.0.i28" class=""></path><path d="M510.506667 487.317333h-89.28l-6.165334-69.354666h95.445334v-67.733334H341.333333l1.621334 18.176 16.576 186.624h150.976zM510.506667 666.026667l-0.277334 0.064-74.624-20.650667-4.757333-54.784h-67.264l9.386667 107.861333 137.237333 39.061334 0.298667-0.085334z" fill="#EBEBEB" p-id="4091"></path><path d="M510.506667 488.256v68.522667h82.56l-7.786667 88.874666-74.773333 20.629334v71.296l137.429333-38.933334 1.024-11.584 15.744-180.394666 1.642667-18.410667h-18.069334zM510.506667 350.229333V417.024H673.642667l1.365333-15.018667 3.072-33.856 1.621333-17.92z" fill="#FFFFFF" p-id="4092"></path></svg>