<?xml version="1.0" standalone="no"?><!DOCTYPE svg PUBLIC "-//W3C//DTD SVG 1.1//EN" "http://www.w3.org/Graphics/SVG/1.1/DTD/svg11.dtd"><svg t="1619406748562" class="icon" viewBox="0 0 1024 1024" version="1.1" xmlns="http://www.w3.org/2000/svg" p-id="6962" xmlns:xlink="http://www.w3.org/1999/xlink" width="32" height="32"><defs><style type="text/css"></style></defs><path d="M182.5 840.396c-13.807 0-25-11.193-25-25v-600c0-13.807 11.193-25 25-25s25 11.193 25 25v600c0 13.806-11.193 25-25 25zM783.5 645.475c-13.807 0-25-11.193-25-25V215.396c0-13.807 11.193-25 25-25s25 11.193 25 25v405.079c0 13.806-11.193 25-25 25z" p-id="6963" fill="#2c2c2c"></path><path d="M483.588 323.167c-88.61 0-164.025-7.017-218.093-20.291-30.833-7.57-55.185-17.333-72.381-29.016-28.536-19.388-34.526-41.894-34.526-57.36 0-15.44 5.975-37.942 34.439-57.457 17.208-11.797 41.554-21.686 72.363-29.392 54.449-13.619 129.901-20.818 218.198-20.818 88.298 0 163.749 7.199 218.198 20.818 30.81 7.706 55.155 17.595 72.363 29.392 28.464 19.515 34.438 42.017 34.438 57.457 0 15.466-5.99 37.972-34.525 57.36-17.196 11.683-41.549 21.445-72.382 29.016-54.067 13.274-129.483 20.291-218.092 20.291z m0-164.334c-207.78 0-275 38.852-275 57.667 0 9.65 18.026 25.345 68.829 37.818 50.226 12.331 121.519 18.849 206.171 18.849 84.653 0 155.946-6.518 206.171-18.849 50.803-12.473 68.829-28.168 68.829-37.818 0-18.815-67.22-57.667-275-57.667zM483.588 523.167c-88.61 0-164.025-7.017-218.093-20.291-30.833-7.57-55.186-17.333-72.381-29.016-28.536-19.388-34.526-41.894-34.526-57.36 0-13.807 11.193-25 25-25s25 11.193 25 25c0 9.65 18.026 25.345 68.829 37.818 50.226 12.331 121.519 18.849 206.171 18.849 84.653 0 155.945-6.518 206.171-18.849 50.803-12.473 68.829-28.167 68.829-37.818 0-13.807 11.193-25 25-25s25 11.193 25 25c0 15.466-5.99 37.973-34.525 57.36-17.196 11.683-41.549 21.445-72.382 29.016-54.068 13.274-129.484 20.291-218.093 20.291zM483.588 719.167c-88.609 0-164.025-7.017-218.093-20.291-30.833-7.57-55.186-17.332-72.381-29.015-28.536-19.389-34.526-41.895-34.526-57.36 0-13.807 11.193-25 25-25s25 11.193 25 25c0 9.649 18.026 25.344 68.829 37.817 50.226 12.331 121.519 18.849 206.171 18.849 13.807 0 25 11.193 25 25s-11.193 25-25 25zM483.588 915.167c-88.609 0-164.025-7.017-218.093-20.291-30.833-7.57-55.186-17.332-72.381-29.015-28.536-19.389-34.526-41.895-34.526-57.36 0-13.807 11.193-25 25-25s25 11.193 25 25c0 9.649 18.026 25.344 68.829 37.817 50.226 12.331 121.519 18.849 206.171 18.849 13.807 0 25 11.193 25 25s-11.193 25-25 25zM841.5 663.483H536.587c-13.808 0-25-11.193-25-25s11.192-25 25-25H841.5c13.807 0 25 11.193 25 25s-11.193 25-25 25zM841.5 768.483H536.587c-13.808 0-25-11.193-25-25s11.192-25 25-25H841.5c13.807 0 25 11.193 25 25s-11.193 25-25 25zM841.5 873.483H536.587c-13.808 0-25-11.193-25-25s11.192-25 25-25H841.5c13.807 0 25 11.193 25 25s-11.193 25-25 25z" p-id="6964" fill="#2c2c2c"></path></svg>